<?xml version="1.0" encoding="utf-8"?>
<!-- Generator: Adobe Illustrator 22.0.1, SVG Export Plug-In . SVG Version: 6.00 Build 0)  -->
<svg version="1.1" id="Layer_1" xmlns="http://www.w3.org/2000/svg" xmlns:xlink="http://www.w3.org/1999/xlink" x="0px" y="0px"
	 viewBox="0 0 1200 1200" style="enable-background:new 0 0 1200 1200;" xml:space="preserve">
<style type="text/css">
	.st0{fill:url(#SVGID_1_);}
	.st1{fill:#FFFFFF;}
</style>
<radialGradient id="SVGID_1_" cx="600.3" cy="599.7" r="600.3" gradientTransform="matrix(1 0 0 -1 0 1200)" gradientUnits="userSpaceOnUse">
	<stop  offset="0.5744" style="stop-color:#151011"/>
	<stop  offset="0.7977" style="stop-color:#151011"/>
	<stop  offset="1" style="stop-color:#151011"/>
</radialGradient>
<rect class="st0" width="1200.6" height="1200.6"/>
<g>
	<path class="st1" d="M471,818.4v110.4H83.1v-87.5l193-224.4h-187V506.6h372.2V594l-193,224.4H471z"/>
	<path class="st1" d="M863.7,821.5v107.4H512.6V506.6h343.3V614H652.6v49.5h178.6V766H652.6v55.5H863.7z"/>
	<path class="st1" d="M202,1090.2c0,22.6-19.1,35.7-54.8,35.7H74.4V996.4h69.2c35.7,0,52.4,14.2,52.4,33.9c0,12-6.1,22-17.9,27.9
		C193.1,1063.7,202,1074.8,202,1090.2z M117.3,1026.9v19.2h20.3c9.8,0,14.2-3.3,14.2-9.6s-4.4-9.6-14.2-9.6H117.3z M158,1085.2
		c0-6.7-4.8-10.2-14.4-10.2h-26.3v20.3h26.3C153.2,1095.4,158,1091.9,158,1085.2z"/>
	<path class="st1" d="M217.4,996.4H261v95.6h58.5v33.9H217.4V996.4z"/>
	<path class="st1" d="M324.5,1061.2c0-39.2,30.9-67.7,73.1-67.7s73.1,28.5,73.1,67.7s-30.9,67.7-73.1,67.7
		S324.5,1100.4,324.5,1061.2z M426.6,1061.2c0-20.2-12.9-32.4-29-32.4s-29,12.2-29,32.4s12.9,32.4,29,32.4
		S426.6,1081.3,426.6,1061.2z"/>
	<path class="st1" d="M481.3,1061.2c0-39.8,30.5-67.7,72.1-67.7c25.3,0,45.3,9.3,58.1,25.9L584,1044c-7.6-9.6-16.6-15.2-28.3-15.2
		c-18.1,0-30.3,12.6-30.3,32.4s12.2,32.4,30.3,32.4c11.7,0,20.7-5.5,28.3-15.2l27.6,24.6c-12.8,16.6-32.7,25.9-58.1,25.9
		C511.9,1128.9,481.3,1100.9,481.3,1061.2z"/>
	<path class="st1" d="M676.9,1083l-9.8,10.9v32h-42.9V996.4h42.9v47l42.5-47h47.5l-51.8,57l54.4,72.5h-50.5L676.9,1083z"/>
	<path class="st1" d="M754.8,1115.5l14.1-31.8c12.2,7.2,28.5,11.8,42.7,11.8c12.4,0,16.8-2.6,16.8-7c0-16.3-71.6-3.1-71.6-51.4
		c0-24,20.2-43.7,60.3-43.7c17.4,0,35.3,3.7,48.8,11.3l-13.1,31.6c-12.8-6.5-24.8-9.6-36.1-9.6c-12.8,0-16.8,3.7-16.8,8.1
		c0,15.5,71.6,2.6,71.6,50.3c0,23.7-20.2,43.7-60.3,43.7C789.6,1128.9,767.7,1123.5,754.8,1115.5z"/>
</g>
</svg>
