<?xml version="1.0" encoding="UTF-8"?><svg id="Layer_1" xmlns="http://www.w3.org/2000/svg" viewBox="0 0 36 36"><path d="M17.983,4.705c-7.557,0-13.682,6.126-13.682,13.682s6.126,13.682,13.682,13.682,13.682-6.126,13.682-13.682-6.126-13.682-13.682-13.682Zm-7.069,14.487c1.139-1.77,2.271-3.545,3.4-5.322,.184-.29,.292-.244,.413,.04,.35,.824,.625,1.669,.792,2.552,.207,1.1-.225,2.016-.767,2.912-.097,.161-.235,.166-.389,.166-.546,0-1.092,0-1.637,0-.531,0-1.061-.004-1.592,.002-.28,.003-.417-.043-.219-.351Zm15.162,2.468c-.573,.224-1.006,.652-1.343,1.185-.485,.768-.922,1.57-1.555,2.238-.522,.551-1.144,.809-1.907,.804-2.248-.014-4.496-.001-6.744-.006-2.548-.006-4.449-1.736-4.714-4.263-.042-.399,.032-.574,.492-.56,1.108,.034,2.218,.019,3.326,.005,.288-.003,.392,.076,.415,.379,.059,.78,.579,1.288,1.355,1.329,.56,.03,1.124,.002,1.686,.011,.211,.003,.317-.07,.3-.288-.001-.015,0-.03,.001-.045,.074-1.21,.074-1.202-1.143-1.216-.293-.003-.704,.157-.85-.098-.132-.231,.258-.463,.371-.721,.018-.041,.042-.082,.068-.118,1.293-1.781,1.392-3.69,.64-5.705-.292-.783-.608-1.552-.981-2.3-.065-.13-.177-.246-.154-.443,.509,.054,.974,.234,1.452,.358,.592,.153,.591,.156,.598-.439,.001-.106,0-.213,.013-.319,.051-.449,.36-.756,.76-.761,.413-.005,.745,.325,.772,.797,.019,.318,.014,.638,.004,.957-.006,.213,.061,.338,.248,.478,1.052,.788,1.967,1.709,2.672,2.831,.836,1.331,.762,2.608-.188,3.843-.24,.313-.511,.602-.748,.917-.4,.532-.883,.86-1.585,.729-.325-.061-.403,.097-.404,.406-.004,1.134-.014,1.103,1.1,1.145,.734,.027,1.313-.221,1.763-.766,.358-.434,.812-.643,1.339-.784,1.04-.277,2.071-.587,3.103-.894,.299-.089,.416-.051,.435,.311,.027,.499-.097,.804-.598,1Z" fill="#b1841d"/></svg>