<?xml version="1.0" encoding="UTF-8"?><svg id="Layer_1" xmlns="http://www.w3.org/2000/svg" viewBox="0 0 36 36"><path d="M18.029,32.715h-.056c-7.789-.029-14.101-6.395-14.069-14.184,.029-7.77,6.363-14.069,14.127-14.069h.056c7.789,.029,14.101,6.395,14.069,14.184-.029,7.77-6.363,14.069-14.127,14.069Zm.003-26.417c-3.266,0-6.336,1.265-8.655,3.565-2.332,2.311-3.624,5.392-3.638,8.674-.027,6.778,5.464,12.314,12.239,12.343h.051c6.756,0,12.263-5.48,12.293-12.239l.917,.003-.917-.003c.027-6.778-5.464-12.314-12.239-12.343h-.051Z" fill="#fff"/><path d="M17.996,32.715h-.024c-4.94-.021-8.781-6.243-8.749-14.162,.013-3.691,.896-7.173,2.479-9.803,1.669-2.766,3.926-4.287,6.36-4.287h.024c2.445,.011,4.699,1.551,6.35,4.341,1.565,2.643,2.415,6.13,2.399,9.824-.013,3.688-.896,7.171-2.479,9.8-1.669,2.766-3.926,4.287-6.36,4.287Zm.067-26.417c-1.765,0-3.464,1.209-4.788,3.402-1.415,2.348-2.204,5.496-2.217,8.858-.027,6.663,3.143,12.306,6.919,12.322h.019c1.765,0,3.464-1.209,4.788-3.402,1.415-2.348,2.204-5.496,2.217-8.858v-.003c.013-3.365-.746-6.515-2.145-8.877-1.308-2.212-3.004-3.434-4.774-3.442h-.019Z" fill="#fff"/><polygon points="19.096 31.801 17.261 31.795 17.373 4.971 19.208 4.977 19.096 31.801" fill="#fff"/><polygon points="29.639 12.848 6.878 12.755 6.883 10.92 29.645 11.013 29.639 12.848" fill="#fff"/><polygon points="29.58 26.871 6.822 26.775 6.827 24.94 29.586 25.036 29.58 26.871" fill="#fff"/><rect x="16.689" y="4.601" width="1.835" height="27.372" transform="translate(-.741 35.83) rotate(-89.804)" fill="#fff"/></svg>