<?xml version="1.0" encoding="UTF-8"?><svg id="Layer_1" xmlns="http://www.w3.org/2000/svg" viewBox="0 0 36 36"><path d="M17.597,4.705c-7.557,0-13.682,6.126-13.682,13.682s6.126,13.682,13.682,13.682,13.682-6.126,13.682-13.682-6.126-13.682-13.682-13.682Zm8.892,9.47c-.27,.345-.571,.662-.905,.952-.181,.157-.368,.307-.568,.442-.037,.025-.05,.05-.048,.093,.013,.268,.011,.537-.002,.805-.029,.565-.114,1.122-.249,1.672-.206,.837-.522,1.636-.946,2.395-.355,.636-.779,1.228-1.274,1.774-.692,.764-1.492,1.403-2.408,1.908-.86,.475-1.777,.808-2.749,1.006-.608,.124-1.223,.196-1.845,.216-.529,.017-1.057-.001-1.584-.062-.725-.083-1.432-.241-2.12-.474-.693-.234-1.348-.543-1.971-.914-.009-.005-.02-.01-.018-.027,1.884,.179,3.582-.27,5.108-1.369-.096-.007-.173-.012-.249-.019-.84-.077-1.556-.401-2.152-.969-.366-.349-.63-.759-.806-1.221-.036-.095-.035-.094,.067-.078,.474,.072,.945,.052,1.411-.059l.018-.008c-.002-.023-.023-.016-.035-.019-.762-.169-1.397-.538-1.901-1.107-.417-.471-.67-1.015-.77-1.624-.026-.16-.039-.322-.039-.485,0-.053,.015-.053,.058-.031,.43,.218,.887,.348,1.375,.377,.031,.002,.063,.018,.099,0-.004-.026-.029-.034-.047-.046-.464-.316-.826-.716-1.083-1.201-.228-.43-.35-.885-.369-1.367-.025-.621,.123-1.201,.436-1.744,.028-.049,.042-.041,.074-.005,.597,.691,1.284,1.287,2.06,1.792,.675,.439,1.395,.793,2.163,1.061,.694,.242,1.408,.408,2.141,.495,.228,.027,.456,.044,.685,.062,.043,.003,.058-.004,.052-.043-.025-.151-.06-.302-.07-.455-.054-.868,.191-1.633,.732-2.294,.395-.482,.896-.832,1.495-1.051,.578-.21,1.174-.266,1.786-.174,.758,.114,1.402,.436,1.939,.955,.031,.03,.075,.043,.117,.035,.458-.095,.904-.225,1.335-.403,.265-.11,.522-.233,.771-.372,.005-.003,.012-.004,.032-.009-.266,.753-.743,1.337-1.423,1.773-.015,.01-.007,.033,.01,.031,.31-.034,.613-.095,.913-.173,.324-.084,.638-.195,.957-.309-.067,.089-.131,.179-.199,.266Z" fill="#b1841d"/></svg>